<?xml version="1.0" encoding="utf-8"?>
<!-- Generator: Adobe Illustrator 27.2.0, SVG Export Plug-In . SVG Version: 6.00 Build 0)  -->
<svg version="1.1" id="Layer_1" xmlns="http://www.w3.org/2000/svg" xmlns:xlink="http://www.w3.org/1999/xlink" x="0px" y="0px"
	 viewBox="0 0 1865.9 615.4" style="enable-background:new 0 0 1865.9 615.4;" xml:space="preserve">
<style type="text/css">
	.st0{fill:#FFFFFF;}
	.st1{fill:#F4B142;}
</style>
<g id="ART">
	<g>
		<path class="st0" d="M698.6,131.6c0,43.2,20.8,60.1,54,60.1c26.3,0,48.8-15.2,61.2-31.9l2.5,28.5h40.2v-5.8l-21.6-5.5V11.4
			l21.6-5.5V0h-64.5v5.8l21.6,5.5v139.9c-15,16.9-32.7,26-53.7,26c-26,0-39.9-12.2-39.9-48.2V11.4l21.6-5.5V0h-64.8v5.8l21.9,5.5
			L698.6,131.6L698.6,131.6z"/>
		<path class="st0" d="M888.9,177.3l-8.3,11.1h50.1v-5.8l-21.1-3.6V90.6c8.3-9.7,21.1-18,35.7-18c16.1,0,27.7,10,27.7,32.1v72.6
			l-8.3,11.1h50.1v-5.8l-21.1-3.6v-76.7c0-31.3-18.3-44-39.9-44c-21.1,0-33.5,11.6-43.2,22.7h-1.1V58.2L878,67l10.8,16.1
			L888.9,177.3L888.9,177.3z"/>
		<polygon class="st0" points="1042.6,177.3 1034.3,188.4 1084.4,188.4 1084.4,182.5 1063.4,178.9 1063.4,58.2 1031.8,67 
			1042.6,83.1 		"/>
		<path class="st0" d="M1050.6,32.4c8.9,0,13.8-5.8,13.8-13s-5-13.3-13.8-13.3c-8.6,0-13.6,6.1-13.6,13.3S1042,32.4,1050.6,32.4z"/>
		<polygon class="st0" points="1223.5,61.5 1177.2,61.5 1177.2,67 1198.8,74.5 1163.6,163.1 1124.3,72.8 1132.9,61.5 1090.8,61.5 
			1090.8,67 1100.8,70.9 1155,191.1 1161.7,188.4 1213.8,73.4 		"/>
		<path class="st0" d="M1289.9,191.7c37.4,0,50.4-29.1,53.5-46.8l-5-1.1c-6.1,15.2-16.1,33-42.9,33c-27.2,0-44-23.5-44-60.1v-2.2
			h87.8c0.3-3.6,0.3-5.5,0.3-7.8c0-31.6-19.7-48.5-45.4-48.5c-34.3,0-62.3,28.5-62.3,68.4C1231.8,165.6,1256.4,191.7,1289.9,191.7z
			 M1290.8,67.6c17.2,0,28.2,12.5,28.5,36.6L1252,108C1254.8,80.6,1272.2,67.6,1290.8,67.6z"/>
		<path class="st0" d="M1377.8,177.3l-8.3,11.1h52.9v-5.8l-23.8-3.6v-74c7.2-15.5,21.1-26.9,38.5-26.9c4.4,0,7.8,0.3,12.5,1.1
			l1.9-14.1c0.6-4.7-3.9-6.9-11.1-6.9c-18.8,0-32.7,14.4-41.3,34.9h-0.6V58.2l-31.6,8.9l10.8,16.1V177.3z"/>
		<path class="st0" d="M1513.5,191.7c31,0,46-17.5,46-36.6c0-23.8-20.5-33.5-41-42.1c-16.6-7.2-30.5-13.3-30.5-26.9
			c0-10.8,7.5-18.6,22.2-18.6c13,0,28.2,5.8,41,26h1.7l-2.2-34.4l-11.4,3.9c-9.4-3.1-17.7-5-28.2-5c-23.3,0-40.7,12.2-40.7,33
			c0,21.1,16.9,30.8,37.4,39.3c21.3,8.9,34.1,15,34.1,29.9c0,12.2-9.7,21.6-24.7,21.6c-16.1,0-30.8-7.8-47.4-28.2l-1.9,0.3l3.3,29.6
			C1485.5,188.9,1501.6,191.7,1513.5,191.7z"/>
		<polygon class="st0" points="1595.2,177.3 1586.9,188.4 1637,188.4 1637,182.5 1616,178.9 1616,58.2 1584.4,67 1595.2,83.1 		"/>
		<path class="st0" d="M1603.2,32.4c8.9,0,13.8-5.8,13.8-13s-5-13.3-13.8-13.3c-8.6,0-13.6,6.1-13.6,13.3S1594.6,32.4,1603.2,32.4z"
			/>
		<path class="st0" d="M1865.9,61.5h-46V67l21.6,6.9l-36,85.3l-37.7-86.4l8.6-11.4h-42.1V67l10,3.9l51.8,114.1l-1.4,3.6
			c-9.1,21-16.3,31.6-43.8,34.6l2.5,11.9c0.8,4.7,3.9,6.4,7.5,6.4c18.6-0.5,30.5-16.1,43.2-53.2l6.9-20.8l45.2-94.2L1865.9,61.5z"/>
		<path class="st0" d="M1662.9,154.8c0,26.9,14.4,36.8,36.3,36.8c13.6,0,29.6-6.4,38.8-23l-2.8-2.8c-7.2,7.5-16.9,11.4-26,11.4
			c-16.6,0-25.5-8.6-25.5-26.9V72.8h36.1V61.5h-36.1V25.8l-34.3,27.4l13.6,8.9V154.8z"/>
		<path class="st0" d="M809.3,389.9c0-40.2-28.8-66.8-63.4-66.8s-63.4,26.6-63.4,66.8c0,40.2,28.8,66.8,63.4,66.8
			S809.3,430,809.3,389.9z M745.9,446.4c-26,0-41.8-22.2-41.8-56.5c0-34.1,15.8-56.8,41.8-56.8c26,0,41.8,22.7,41.8,56.8
			C787.7,424.2,771.9,446.4,745.9,446.4z"/>
		<path class="st0" d="M904.6,256.1c-25.5,0-62.3,18-64,70.4l-14.1,11.4h14.1v104.4l-8.3,11.1h52.9v-5.8l-23.8-3.6V337.8h32.7v-11.4
			h-32.7c-2.2-9.7-2.8-16.3-2.8-22.2c0-26,15.8-32.1,32.1-32.1c7.8,0,15.8,1.4,23.5,3l3.1-12.5C918.7,256.9,912.6,256.1,904.6,256.1
			z"/>
		<path class="st0" d="M1145.8,359.1c0-57.3-38.5-97.5-85.9-97.5s-85.9,40.2-85.9,97.5c0,57.6,38.5,97.5,85.9,97.5
			S1145.8,416.7,1145.8,359.1z M1062.5,446.1c-39.6,0-65.9-35.5-65.9-93.4c0-53.7,25.5-80.6,60.9-80.6c39.3,0,65.7,35.2,65.7,93.4
			C1123.1,419.2,1097.7,446.1,1062.5,446.1z"/>
		<path class="st0" d="M1181.6,419.8c0,26.9,14.4,36.8,36.3,36.8c13.6,0,29.6-6.4,38.8-23l-2.8-2.8c-7.2,7.5-16.9,11.4-26,11.4
			c-16.6,0-25.5-8.6-25.5-26.9v-77.6h45.4v-11.4h-45.4v-35.7l-34.3,27.4l13.6,8.9V419.8z"/>
		<path class="st0" d="M1392.7,446.1l-21.1-3.9v-68.7c0-35.5-20.5-50.4-48.5-50.4c-19.1,0-35.2,8-47.6,17.2
			c-2.5,14.7,3.9,21.6,17.7,21.6l6.9-25.8c18.6-3.6,50.4-3.9,50.4,38.8v4.4l-74.2,18.6c-3.1,9.7-3.6,15-3.6,21.9
			c0,22.4,15.2,36.3,37.7,36.3c16.6,0,31.8-8.6,39.9-26h1.1l1.9,24.7l39.3-3.3L1392.7,446.1L1392.7,446.1z M1350.6,402.9
			c0,22.4-11.1,39.6-33.2,39.6c-26.3,0-26-24.9-22.2-40.7l55.4-10.8V402.9z"/>
		<path class="st0" d="M1483.2,430h-47.1l7.8-24.1c5,1.1,10.2,1.7,15.5,1.7c27.2,0,52.1-14.4,52.1-42.4c0-16.1-8.6-28.5-23.3-36
			l23.5-26.9v-1.9l-18-5.3l-12.7,31.3c-6.1-2.2-13.8-3.3-21.6-3.3c-27.2,0-52.1,14.4-52.1,42.1c0,19.7,12.2,32.4,28.8,38.5l-19.9,28
			c1.4,6.4,9.7,11.6,16.1,12.5v1.7c-16.3,4.2-28.5,14.4-28.5,28.2c0,19.4,21.9,32.7,54,32.7c34.1,0,67.6-18.6,67.6-45.7
			C1525.3,443.6,1513.7,430,1483.2,430z M1427.8,364.7c0-20.8,11.4-32.7,31.6-32.7s31.6,12.2,31.6,33.8c0,21-11.4,33-31.6,33
			C1439.2,398.7,1427.8,386.3,1427.8,364.7z M1461.6,496.8c-28.8,0-37.7-12.5-37.7-25.2c0-7.8,3.6-22.7,31.6-22.7h26
			c21.9,0,25.5,8.3,25.5,18.8C1507.1,481.3,1492.7,496.8,1461.6,496.8z"/>
		<path class="st0" d="M1662.5,389.9c0-40.2-28.8-66.8-63.4-66.8s-63.4,26.6-63.4,66.8c0,40.2,28.8,66.8,63.4,66.8
			S1662.5,430,1662.5,389.9z M1599,446.4c-26,0-41.8-22.2-41.8-56.5c0-34.1,15.8-56.8,41.8-56.8c26,0,41.8,22.7,41.8,56.8
			C1640.8,424.2,1625.1,446.4,1599,446.4z"/>
		<path class="st0" d="M709.8,555.7c-15.6,0-27.5,12.3-27.5,30.4s11.9,30.4,27.5,30.4c15.7,0,27.6-12.3,27.6-30.4
			C737.5,568,725.5,555.7,709.8,555.7z M709.8,610.6c-12.2,0-19.9-9.8-19.9-24.5s7.8-24.5,19.9-24.5s19.9,9.8,19.9,24.5
			S722,610.6,709.8,610.6z"/>
		<rect x="696.3" y="545" class="st0" width="27.1" height="4"/>
		<polygon class="st0" points="747.1,562.5 768.2,562.5 768.2,615.4 775.8,615.4 775.8,562.5 796.8,562.5 796.8,556.7 747.1,556.7 
					"/>
		<rect x="813.3" y="545" class="st0" width="27.1" height="4"/>
		<path class="st0" d="M823.1,556.7L801,615.4h7.5l6.5-17.9h23.9l6.5,17.9h8l-22.1-58.7H823.1z M816.9,592l10-27.5l9.9,27.5H816.9z"
			/>
		<polygon class="st0" points="914.4,556.7 905.5,556.7 877.7,585.5 877.7,556.7 870.1,556.7 870.1,615.4 877.7,615.4 877.7,594.2 
			885.2,586.4 905.8,615.4 914.7,615.4 890.7,581.5 		"/>
		<path class="st0" d="M953.2,555.7c-15.6,0-27.5,12.3-27.5,30.4s11.9,30.4,27.5,30.4c15.7,0,27.6-12.3,27.6-30.4
			C980.8,568,968.9,555.7,953.2,555.7z M953.2,610.6c-12.2,0-19.9-9.8-19.9-24.5s7.8-24.5,19.9-24.5s19.9,9.8,19.9,24.5
			C973.1,600.8,965.3,610.6,953.2,610.6z"/>
		<path class="st0" d="M1034.8,603.2c-4.6,4.4-10.3,7.3-16.9,7.3c-8.4,0-12.3-3.7-12.3-13.9v-40h-7.6V598c0,12.5,5.8,18.5,17.8,18.5
			c8.1,0,15-3.5,19.3-8.7l0.8,7.7h6.6v-58.7h-7.6L1034.8,603.2L1034.8,603.2z"/>
		<polygon class="st0" points="1136.1,605.7 1123.4,556.7 1115.3,556.7 1102.6,605.7 1092.1,556.7 1084.4,556.7 1098,615.4 
			1106.3,615.4 1119.1,566 1132,615.4 1140.3,615.4 1153.8,556.7 1146.7,556.7 		"/>
		<polygon class="st0" points="1211.1,581.8 1178.5,581.8 1178.5,556.7 1170.9,556.7 1170.9,615.4 1178.5,615.4 1178.5,587.7 
			1211.1,587.7 1211.1,615.4 1218.7,615.4 1218.7,556.7 1211.1,556.7 		"/>
		<path class="st0" d="M1255.8,556.7l-22.1,58.7h7.5l6.5-17.9h23.9l6.5,17.9h7.9l-22.1-58.7H1255.8z M1249.6,592l10-27.5l9.9,27.5
			H1249.6z"/>
		<polygon class="st0" points="1347.1,556.7 1338.2,556.7 1310.4,585.5 1310.4,556.7 1302.8,556.7 1302.8,615.4 1310.4,615.4 
			1310.4,594.2 1317.9,586.4 1338.5,615.4 1347.4,615.4 1323.4,581.5 		"/>
		<path class="st0" d="M1381,556.7l-22.1,58.7h7.5l6.5-17.9h23.9l6.5,17.9h7.9l-22.1-58.7H1381z M1374.9,592l10-27.5l9.9,27.5
			H1374.9z"/>
		<rect x="1428.1" y="556.7" class="st0" width="7.6" height="58.7"/>
		<polygon class="st0" points="1495.6,581.8 1463.1,581.8 1463.1,556.7 1455.5,556.7 1455.5,615.4 1463.1,615.4 1463.1,587.7 
			1495.6,587.7 1495.6,615.4 1503.2,615.4 1503.2,556.7 1495.6,556.7 		"/>
		<path class="st0" d="M1559.9,603.2c-4.6,4.4-10.3,7.3-16.9,7.3c-8.4,0-12.3-3.7-12.3-13.9v-40h-7.6V598c0,12.5,5.8,18.5,17.8,18.5
			c8.1,0,15-3.5,19.3-8.7l0.8,7.7h6.6v-58.7h-7.6L1559.9,603.2L1559.9,603.2z"/>
		<polygon class="st0" points="1661.3,605.7 1648.6,556.7 1640.5,556.7 1627.8,605.7 1617.2,556.7 1609.6,556.7 1623.1,615.4 
			1631.4,615.4 1644.3,566 1657.1,615.4 1665.4,615.4 1679,556.7 1671.8,556.7 		"/>
		<path class="st0" d="M1710,556.7l-22.1,58.7h7.5l6.5-17.9h23.9l6.5,17.9h7.9l-22.1-58.7H1710z M1703.9,592l10-27.5l9.9,27.5
			H1703.9z"/>
		<polygon class="st0" points="1801.4,556.7 1792.5,556.7 1764.7,585.5 1764.7,556.7 1757.1,556.7 1757.1,615.4 1764.7,615.4 
			1764.7,594.2 1772.2,586.4 1792.8,615.4 1801.7,615.4 1777.7,581.5 		"/>
		<path class="st0" d="M1835.3,556.7l-22.1,58.7h7.5l6.5-17.9h23.9l6.5,17.9h7.9l-22.1-58.7H1835.3z M1829.2,592l10-27.5l9.9,27.5
			H1829.2z"/>
	</g>
	<g>
		<path class="st1" d="M62.1,410.6c0,71.8,80.7,200,196,200c2.4,0,6.5,0,11.3-0.8c-119.4,0-183.1-129.9-183.1-200
			c0-65.3,28.2-111.3,94.4-107.3c-4-1.6-11.3-2.4-18.5-2.4C104.9,300,62.1,345.2,62.1,410.6z"/>
		<path class="st1" d="M174.2,305.7c-40.3-1.6-67.8,44.4-67.8,101.6c0,59.7,50.8,192.8,158.1,200
			c-80.7-11.3-136.3-118.6-136.3-204.9C128.3,357.3,142.8,309.7,174.2,305.7z"/>
		<path class="st1" d="M254.1,53.2c8.9,0,16.1,0.8,21,2.4c-4-3.2-16.9-4.8-28.2-4.8C127.4,50.8,0,158.9,0,333.1
			c0,174.2,127.4,282.3,246.8,282.3c11.3,0,22.6-1.6,28.2-4.8c-4.8,1.6-12.1,2.4-21,2.4C129.9,613,40.3,487.2,40.3,409.7
			c0-84.7,71-114.5,106.5-114.5c18.5,0,29.8,1.6,40.3,6.5c-8.1-7.3-26.6-12.9-47.6-12.9c-4.6,0-9.1,0.2-13.7,0.5
			c1.7-124.9,63.9-220,138.7-230.4C171.1,63.6,104.4,180,101,293.4c-8,2.1-15.8,5.1-23.3,9.2c4.9-122,73.8-246.1,191.7-246.1
			c-5.6-0.8-10.5-0.8-12.9-0.8C149.2,55.6,51.4,173.3,49.3,325c-7.6,8.3-14.7,18.4-21.2,30.5c-0.4-9.4-0.6-18-0.6-23.2
			C27.4,162.9,138.7,53.2,254.1,53.2z"/>
		<path class="st1" d="M413.1,15.9c16.1,0,27.2-6.8,36-15.7H114.7c8.9,9,20,15.7,36,15.7H413.1z"/>
		<path class="st1" d="M501.7,255.7c0-71.8-80.7-200-196-200c-2.4,0-6.5,0-11.3,0.8c119.4,0,183.1,129.9,183.1,200
			c0,65.3-28.2,111.3-94.4,107.3c4,1.6,11.3,2.4,18.5,2.4C459,366.2,501.7,321,501.7,255.7z"/>
		<path class="st1" d="M317,50.8c-11.3,0-22.6,1.6-28.2,4.8c4.8-1.6,12.1-2.4,21-2.4c124.2,0,213.7,125.8,213.7,203.3
			c0,84.7-71,114.5-106.5,114.5c-18.5,0-29.8-1.6-40.3-6.5c8.1,7.3,26.6,12.9,47.6,12.9c4.6,0,9.1-0.2,13.7-0.5
			c-1.7,124.9-63.9,220-138.7,230.4c93.5-4.7,160.2-121.1,163.6-234.5c8-2.1,15.8-5.1,23.3-9.2c-4.9,122-73.8,246.1-191.7,246.1
			c5.6,0.8,10.5,0.8,12.9,0.8c107.3,0,205.1-117.7,207.2-269.4c7.6-8.3,14.7-18.4,21.2-30.5c0.4,9.4,0.6,18,0.6,23.2
			c0,169.4-111.3,279.1-226.6,279.1c-8.9,0-16.1-0.8-21-2.4c4,3.2,16.9,4.8,28.2,4.8c119.4,0,246.8-108.1,246.8-282.3
			C563.8,158.9,436.4,50.8,317,50.8z"/>
		<path class="st1" d="M389.6,360.5c40.3,1.6,67.8-44.4,67.8-101.6c0-59.7-50.8-192.8-158.1-200c80.7,11.3,136.3,118.6,136.3,204.9
			C435.6,308.9,421.1,356.5,389.6,360.5z"/>
	</g>
</g>
<g id="Layer_2_00000043444691228938610920000015043580173017337506_">
</g>
</svg>
